# Blender 4.0.2
# www.blender.org
mtllib 1.mtl
o Human.015
v 1.034913 2.838003 0.188463
v 1.012339 4.021995 0.501588
v 1.040386 3.114686 -0.167839
v 0.986652 4.260136 -0.168401
v -0.005492 3.209538 -0.878969
v -0.005492 4.658928 -0.670941
v -0.005492 2.538746 0.448679
v -0.005492 4.516338 0.636359
v 0.860584 2.795629 0.527276
v -0.005492 2.729403 0.702382
v -0.005492 2.620024 -0.127972
v -0.005492 2.500057 0.141760
v 0.164401 2.536783 0.121492
v 0.163998 2.604417 -0.092888
v 0.483242 2.486464 0.119804
v 0.446100 2.510975 -0.251814
v -0.005492 2.371017 0.215867
v -0.005492 2.497419 -0.310981
v 0.769842 1.742894 0.164183
v 0.608415 1.797990 -0.354246
v -0.005492 1.508474 0.478793
v -0.005492 1.680765 -0.679375
v 0.887453 1.146245 0.093375
v 0.785549 1.134127 -0.415917
v -0.005492 0.339253 0.479396
v -0.005492 0.452616 -1.056978
v 0.986623 0.182345 -0.318900
v 0.452432 0.193244 -0.489429
v 0.992994 0.333894 0.152861
v 1.038674 0.098527 0.094652
v 0.688062 0.212743 0.189452
v 0.735627 0.019447 0.133746
v 1.029956 0.242405 0.392765
v 1.044762 0.103066 0.366864
v 0.866317 0.188805 0.432448
v 0.893428 0.065647 0.405443
v -0.005492 2.067112 0.254220
v 0.750917 1.932574 0.145865
v 0.519395 2.018388 -0.325545
v -0.005492 2.146989 -0.500282
v 0.904696 2.223735 -0.292348
v 0.797488 2.355541 0.051021
v 0.503370 1.454859 -0.076971
v 0.935395 1.573461 -0.076585
v 0.591335 0.849552 0.143512
v 0.595582 0.815522 -0.007085
v 0.887788 0.930471 0.138972
v 0.889888 0.896242 -0.011625
v 0.640683 0.714887 0.246433
v 0.692866 0.645591 -0.008754
v 0.877143 0.766534 0.252270
v 0.889709 0.680351 -0.002500
v 0.794905 0.390395 0.311426
v 0.784189 0.426277 0.087585
v 0.865189 0.411331 0.306844
v 0.876046 0.447170 0.083003
v 0.892350 0.585935 0.037830
v 0.741997 0.564876 0.034995
v 0.707968 0.609659 0.272027
v 0.884588 0.641810 0.274629
v 0.798032 4.405138 0.203072
v -0.005492 4.804217 0.204557
v 1.162143 3.924478 -0.361114
v 1.278954 3.651555 0.551352
v -0.005492 3.593483 0.945562
v -0.005492 3.842430 -0.860531
v 1.498245 3.675407 0.126740
v 0.967670 0.386555 -0.098209
v 0.976268 0.343307 0.019730
v 0.981249 0.310945 -0.142446
v 0.562684 0.115826 0.032828
v 0.415908 0.270416 0.236267
v 0.452794 0.187710 -0.092049
v 0.504007 1.541233 -0.349596
v 0.536883 1.294840 -0.299462
v 0.508267 1.434086 -0.228514
v 0.938038 1.401996 -0.299633
v 0.930948 1.652610 -0.341705
v 0.936581 1.546369 -0.228128
v -0.005492 0.187710 -0.028469
v 1.739856 4.267487 0.588107
v -0.005492 1.172832 -0.812800
v -0.005492 0.879922 0.582049
v -0.005492 0.777529 -0.859277
v 0.177519 0.670870 -0.802669
v 0.160500 0.406629 -0.717302
v -0.005492 0.225656 -0.663399
v -1.045898 2.838003 0.188463
v -1.023323 4.021995 0.501588
v -1.051370 3.114686 -0.167839
v -0.997636 4.260136 -0.168401
v -0.871568 2.795629 0.527276
v -0.175386 2.536783 0.121492
v -0.174983 2.604417 -0.092888
v -0.467993 2.485260 0.119804
v -0.405221 2.504909 -0.251814
v -0.837220 1.720304 0.164183
v -0.851362 1.691635 -0.354246
v -0.995046 1.110323 0.094583
v -0.954877 1.062692 -0.406736
v -0.975816 0.151565 -0.271085
v -0.446378 0.230216 -0.519157
v -0.896589 0.252162 0.242834
v -0.871563 0.013174 0.171807
v -0.596886 0.243526 0.169410
v -0.571523 0.044511 0.097655
v -0.812795 0.175164 0.473711
v -0.782664 0.027738 0.435475
v -0.622946 0.189088 0.444890
v -0.611077 0.052932 0.412264
v -0.811961 1.921380 0.145865
v -0.811694 1.914232 -0.325545
v -0.784113 2.401206 -0.292348
v -0.788924 2.391441 0.051021
v -0.541053 1.528605 -0.076971
v -0.979683 1.627298 -0.076585
v -0.597624 0.919560 0.143512
v -0.600107 0.885356 -0.007085
v -0.897863 0.985054 0.138972
v -0.898192 0.950761 -0.011625
v -0.639949 0.782526 0.246433
v -0.688482 0.710627 -0.008754
v -0.878761 0.821886 0.252270
v -0.886857 0.735168 -0.002500
v -0.777197 0.450499 0.311426
v -0.768350 0.486886 0.087585
v -0.848470 0.467775 0.306844
v -0.861164 0.503005 0.083003
v -0.884616 0.640743 0.037830
v -0.733376 0.627481 0.034995
v -0.701706 0.673962 0.272027
v -0.879752 0.696944 0.274629
v -0.809016 4.405138 0.203072
v -1.173127 3.924478 -0.361114
v -1.289938 3.651555 0.551352
v -1.489995 3.675407 0.126740
v -1.018273 0.340868 -0.027604
v -0.948575 0.281967 0.111330
v -0.996036 0.249918 -0.056666
v -0.554636 0.141836 0.018347
v -0.433505 0.280011 0.230142
v -0.463779 0.187710 -0.092049
v -0.593613 1.632085 -0.349596
v -0.566254 1.367068 -0.299462
v -0.544871 1.507606 -0.228514
v -0.972410 1.453353 -0.299634
v -0.996419 1.739046 -0.341705
v -0.978414 1.597608 -0.228128
v -1.912781 4.230320 0.417162
v -0.188421 0.673348 -0.803245
v -0.166364 0.440853 -0.735699
vn 0.4362 0.3425 -0.8321
vn 0.8213 -0.4190 0.3871
vn 0.2984 -0.9408 0.1606
vn 0.3997 0.7304 0.5538
vn 0.2682 0.3086 0.9126
vn 0.2457 -0.9209 0.3027
vn 0.3158 -0.7177 -0.6206
vn 0.3683 -0.7975 -0.4779
vn 0.0526 0.4528 0.8900
vn 0.9119 0.2483 -0.3267
vn 0.0767 0.8703 -0.4866
vn 0.2641 0.9552 0.1333
vn 0.4373 0.2116 -0.8740
vn 0.2349 0.3055 0.9228
vn 0.3844 0.3127 -0.8686
vn 0.0287 -0.9791 -0.2012
vn 0.9417 0.2445 -0.2311
vn 0.4173 0.0641 0.9065
vn 0.5105 -0.1364 0.8490
vn -0.4390 0.8968 -0.0555
vn -0.5637 -0.8121 0.1509
vn 0.1210 -0.9535 -0.2761
vn 0.9723 0.1700 -0.1606
vn 0.2507 -0.9680 0.0148
vn -0.7859 -0.3232 0.5271
vn -0.2797 0.8981 0.3393
vn 0.2783 -0.1469 0.9492
vn 0.1626 0.1242 0.9788
vn 0.1005 0.4729 -0.8754
vn 0.2053 0.1747 -0.9630
vn 0.9974 -0.0577 0.0443
vn 0.2814 0.1804 0.9425
vn 0.0231 0.0701 -0.9973
vn 0.1299 -0.5023 -0.8549
vn 0.4750 -0.2740 0.8362
vn -0.9358 0.1612 0.3136
vn -0.0840 0.3262 0.9416
vn 0.9839 0.0966 0.1505
vn 0.0500 -0.3279 -0.9434
vn 0.9991 -0.0154 0.0407
vn 0.0076 -0.0174 -0.9998
vn -0.8992 -0.4374 -0.0137
vn 0.2387 -0.9589 -0.1535
vn -0.9365 -0.3484 -0.0406
vn -0.0251 0.1535 0.9878
vn 0.9952 -0.0870 0.0440
vn -0.1433 0.5682 0.8103
vn 0.9982 0.0533 0.0259
vn -0.0577 0.1858 0.9809
vn -0.8434 -0.5367 -0.0233
vn 0.0896 -0.4094 -0.9079
vn 0.4346 0.8894 -0.1413
vn 0.7734 -0.3559 -0.5246
vn 0.2615 -0.2100 0.9421
vn 0.7399 -0.5746 0.3499
vn 0.4741 -0.1453 -0.8684
vn 0.9836 0.1800 -0.0057
vn -0.6358 -0.7624 0.1206
vn 0.3705 -0.1077 0.9226
vn 0.9772 0.1993 -0.0726
vn -0.9835 -0.1515 -0.0994
vn 0.9993 0.0237 -0.0274
vn 0.0561 -0.1778 -0.9825
vn -0.9885 -0.1493 -0.0230
vn 0.0190 -0.9625 0.2705
vn 0.5569 0.6130 -0.5605
vn 0.8390 0.0773 -0.5386
vn -0.1309 0.0389 0.9906
vn -0.2656 0.4957 0.8269
vn 0.2379 0.9396 -0.2460
vn 0.4646 0.8813 -0.0867
vn 0.4656 -0.1140 -0.8776
vn 0.5102 -0.1604 0.8449
vn 0.8689 -0.2020 -0.4519
vn 0.4350 0.1407 -0.8894
vn 0.6161 -0.6823 -0.3935
vn 0.4934 0.4521 -0.7431
vn -0.4362 0.3425 -0.8321
vn -0.8307 -0.4148 0.3714
vn -0.2984 -0.9408 0.1606
vn -0.3997 0.7304 0.5538
vn -0.2682 0.3086 0.9126
vn -0.2457 -0.9209 0.3027
vn -0.3158 -0.7177 -0.6206
vn -0.3683 -0.7975 -0.4779
vn -0.0567 0.4494 0.8915
vn -0.9885 0.1513 0.0084
vn -0.0946 0.8627 -0.4967
vn -0.3063 0.9458 0.1078
vn -0.3795 0.1829 -0.9069
vn -0.2267 0.3034 0.9255
vn -0.3127 0.2908 -0.9043
vn -0.0675 -0.9690 -0.2375
vn -0.9768 0.2101 -0.0406
vn -0.3868 0.0743 0.9192
vn -0.4424 -0.1550 0.8833
vn 0.1457 0.9576 -0.2486
vn 0.9074 -0.4000 0.1291
vn 0.9838 0.1709 -0.0537
vn 0.0133 -0.9563 -0.2922
vn -0.9932 0.0181 -0.1146
vn 0.1248 -0.9918 0.0288
vn 0.9905 0.0739 0.1159
vn 0.0411 0.9682 0.2466
vn 0.1620 -0.2166 0.9627
vn -0.1609 0.1363 0.9775
vn -0.1204 0.4718 -0.8734
vn -0.1764 0.2405 -0.9545
vn -0.9930 -0.1101 0.0426
vn -0.2616 0.2032 0.9435
vn 0.0136 0.0776 -0.9969
vn -0.1038 -0.5083 -0.8549
vn -0.5559 -0.2760 0.7841
vn 0.8243 0.5660 0.0128
vn 0.0679 0.3295 0.9417
vn -0.9672 0.2445 0.0687
vn -0.0330 -0.3300 -0.9434
vn -0.9969 -0.0670 0.0407
vn -0.0067 -0.0178 -0.9998
vn 0.9206 -0.3904 -0.0137
vn -0.1888 -0.9699 -0.1535
vn 0.9532 -0.2995 -0.0406
vn 0.0171 0.1546 0.9878
vn -0.9894 -0.1383 0.0440
vn 0.1138 0.5748 0.8103
vn -0.9997 0.0017 0.0259
vn 0.0481 0.1885 0.9809
vn 0.8700 -0.4925 -0.0233
vn -0.0683 -0.4135 -0.9079
vn -0.4346 0.8894 -0.1413
vn -0.7875 -0.3491 -0.5079
vn -0.2615 -0.2100 0.9421
vn -0.6847 -0.6708 0.2849
vn -0.4741 -0.1453 -0.8684
vn -0.8944 -0.3189 0.3135
vn 0.5993 -0.7827 0.1679
vn -0.2163 -0.2884 0.9328
vn -0.9331 -0.2932 0.2083
vn 0.9380 0.0315 -0.3452
vn -0.9951 -0.0740 0.0656
vn -0.0499 -0.1694 -0.9843
vn 0.9949 -0.0980 -0.0230
vn -0.0358 -0.9585 0.2829
vn -0.4414 0.6091 -0.6589
vn -0.7490 -0.2494 -0.6138
vn -0.0534 0.1706 0.9839
vn 0.0622 0.5915 0.8039
vn -0.2009 0.9428 -0.2660
vn -0.2736 0.9617 0.0137
vn -0.4694 -0.1796 -0.8645
vn -0.4665 -0.1650 0.8690
vn -0.8708 -0.2115 -0.4438
vn -0.3953 0.1274 -0.9097
vn -0.6827 -0.6330 -0.3650
vn -0.4871 0.4540 -0.7461
vn -0.9298 -0.2168 0.2973
vt 0.505601 0.010844
vt 0.615868 0.000239
vt 0.594258 0.154877
vt 0.541852 0.175072
vt 0.531730 0.264320
vt 0.497971 0.322572
vt 0.375343 0.293271
vt 0.400618 0.248949
vt 0.362653 0.243440
vt 0.283489 0.360257
vt 0.253956 0.337345
vt 0.266896 0.318469
vt 0.556000 0.436733
vt 0.522641 0.545795
vt 0.474110 0.508144
vt 0.517063 0.378998
vt 0.390883 0.443575
vt 0.313161 0.383277
vt 0.383742 0.045291
vt 0.440479 0.204114
vt 0.313036 0.158914
vt 0.299445 0.140224
vt 0.296497 0.183814
vt 0.828063 0.645297
vt 0.808047 0.640741
vt 0.808048 0.622813
vt 0.863031 0.640608
vt 0.986773 0.573193
vt 0.921084 0.566869
vt 0.922624 0.539277
vt 0.994403 0.542457
vt 0.808046 0.675723
vt 0.828697 0.671806
vt 0.863139 0.690703
vt 0.808045 0.704990
vt 0.808056 0.114166
vt 0.926646 0.114092
vt 0.933926 0.185340
vt 0.808056 0.179029
vt 0.808049 0.584940
vt 0.808051 0.515415
vt 0.808056 0.052654
vt 0.921871 0.084228
vt 0.808056 0.282815
vt 0.828341 0.271590
vt 0.867893 0.303288
vt 0.868869 0.328522
vt 0.808055 0.333782
vt 0.930908 0.466125
vt 0.999761 0.467893
vt 0.808053 0.440613
vt 0.808055 0.372851
vt 0.863627 0.347774
vt 0.942959 0.354970
vt 0.875028 0.806363
vt 0.867468 0.857637
vt 0.851162 0.846372
vt 0.856575 0.806534
vt 0.873398 0.881755
vt 0.861928 0.903188
vt 0.831735 0.861683
vt 0.861913 0.705467
vt 0.895687 0.766545
vt 0.849410 0.782932
vt 0.831735 0.746718
vt 0.959240 0.345243
vt 0.982569 0.354649
vt 0.419552 0.796371
vt 0.401723 0.800594
vt 0.396518 0.790354
vt 0.409463 0.776515
vt 0.410627 0.842864
vt 0.396167 0.830618
vt 0.401581 0.823149
vt 0.418499 0.831835
vt 0.403423 0.810644
vt 0.421551 0.809773
vt 0.587810 0.854439
vt 0.556903 0.855706
vt 0.553417 0.828481
vt 0.587436 0.829601
vt 0.808056 0.003219
vt 0.862264 0.000239
vt 0.911860 0.013732
vt 0.698904 0.813731
vt 0.705693 0.795911
vt 0.726540 0.790444
vt 0.748223 0.882002
vt 0.726608 0.884692
vt 0.905291 0.638053
vt 0.616345 0.753360
vt 0.673620 0.719798
vt 0.690139 0.785209
vt 0.644807 0.812804
vt 0.659025 0.841112
vt 0.690483 0.902872
vt 0.715406 0.705467
vt 0.777381 0.705467
vt 0.790415 0.792582
vt 0.831258 0.713521
vt 0.829089 0.778383
vt 0.813878 0.793649
vt 0.787986 0.883567
vt 0.503330 0.772158
vt 0.513442 0.788918
vt 0.495389 0.794609
vt 0.488080 0.784894
vt 0.757891 0.905714
vt 0.727618 0.912727
vt 0.704835 0.920336
vt 0.807470 0.881755
vt 0.815373 0.905485
vt 0.784125 0.904201
vt 0.591482 0.832060
vt 0.591482 0.802805
vt 0.603631 0.802348
vt 0.600936 0.831478
vt 0.517281 0.842494
vt 0.505527 0.871614
vt 0.488211 0.861872
vt 0.488080 0.832617
vt 0.520272 0.819544
vt 0.490422 0.823440
vt 0.760045 0.920366
vt 0.730956 0.924706
vt 0.782076 0.918722
vt 0.812923 0.919151
vt 0.713065 0.930623
vt 0.613737 0.429435
vt 0.615868 0.585290
vt 0.506260 0.544134
vt 0.548655 0.175541
vt 0.606419 0.292105
vt 0.407129 0.038792
vt 0.488548 0.017349
vt 0.905415 0.804318
vt 0.892730 0.790572
vt 0.892467 0.878109
vt 0.825716 0.811327
vt 0.915705 0.684536
vt 0.831803 0.242342
vt 0.940097 0.299380
vt 0.808056 0.255155
vt 0.808056 0.228062
vt 0.000239 0.662238
vt 0.168324 0.656537
vt 0.161786 0.712318
vt 0.017370 0.771681
vt 0.252256 0.624552
vt 0.204782 0.501374
vt 0.241432 0.465878
vt 0.300290 0.577375
vt 0.190011 0.465969
vt 0.238888 0.354570
vt 0.425291 0.605212
vt 0.359691 0.581845
vt 0.003320 0.535641
vt 0.074324 0.430396
vt 0.095806 0.438916
vt 0.171261 0.551127
vt 0.115815 0.416707
vt 0.788032 0.645296
vt 0.753064 0.640604
vt 0.629327 0.573183
vt 0.621700 0.542446
vt 0.693478 0.539271
vt 0.695016 0.566862
vt 0.752953 0.690699
vt 0.787396 0.671805
vt 0.682185 0.185340
vt 0.689466 0.114092
vt 0.694241 0.084228
vt 0.747243 0.328522
vt 0.748219 0.303288
vt 0.787770 0.271590
vt 0.616345 0.467883
vt 0.685198 0.466119
vt 0.673153 0.354965
vt 0.752484 0.347772
vt 0.246016 0.873054
vt 0.264469 0.873225
vt 0.269882 0.913063
vt 0.253576 0.924328
vt 0.289309 0.928374
vt 0.259116 0.969879
vt 0.247646 0.948446
vt 0.259131 0.772158
vt 0.289309 0.813410
vt 0.271634 0.849624
vt 0.225357 0.833237
vt 0.633544 0.354641
vt 0.656873 0.345236
vt 0.432428 0.775303
vt 0.446319 0.787888
vt 0.441290 0.799349
vt 0.423481 0.795700
vt 0.423518 0.831303
vt 0.440842 0.824026
vt 0.445928 0.832695
vt 0.430295 0.843036
vt 0.421574 0.809115
vt 0.439542 0.810316
vt 0.556612 0.938464
vt 0.556987 0.913626
vt 0.591005 0.912505
vt 0.587520 0.939731
vt 0.753847 0.000239
vt 0.704251 0.013732
vt 0.082798 0.889051
vt 0.110501 0.818090
vt 0.132117 0.820780
vt 0.110434 0.912337
vt 0.089586 0.906870
vt 0.710805 0.638046
vt 0.000239 0.949422
vt 0.028700 0.889978
vt 0.074032 0.917572
vt 0.057514 0.982983
vt 0.042918 0.861670
vt 0.074377 0.799909
vt 0.099300 0.997314
vt 0.174308 0.910200
vt 0.161275 0.997314
vt 0.197771 0.909132
vt 0.212982 0.924398
vt 0.215152 0.989260
vt 0.171880 0.819214
vt 0.535998 0.871614
vt 0.520749 0.858878
vt 0.528058 0.849163
vt 0.546110 0.854854
vt 0.111511 0.790054
vt 0.141784 0.797067
vt 0.088729 0.782445
vt 0.168019 0.798580
vt 0.199267 0.797296
vt 0.191364 0.821026
vt 0.591482 0.772158
vt 0.600936 0.772740
vt 0.603631 0.801871
vt 0.591482 0.801413
vt 0.549950 0.801278
vt 0.520749 0.811155
vt 0.520880 0.781900
vt 0.538196 0.772158
vt 0.552940 0.824228
vt 0.523091 0.820332
vt 0.114849 0.778076
vt 0.143938 0.782415
vt 0.165969 0.784060
vt 0.196817 0.783630
vt 0.096959 0.772158
vt 0.432571 0.662951
vt 0.516961 0.530341
vt 0.584066 0.626282
vt 0.170468 0.663010
vt 0.297731 0.689994
vt 0.002837 0.559910
vt 0.002301 0.644104
vt 0.215629 0.871010
vt 0.228314 0.857263
vt 0.228577 0.944801
vt 0.209609 0.891455
vt 0.700388 0.684529
vt 0.676015 0.299380
vt 0.784308 0.242342
s 0
usemtl 2_ле
f 66/1/1 6/2/1 4/3/1 63/4/1
f 67/5/2 64/6/2 9/7/2 1/8/2
f 1/9/3 7/10/3 12/11/3 13/12/3
f 61/13/4 62/14/4 8/15/4 2/16/4
f 64/6/5 2/16/5 8/15/5 65/17/5
f 7/10/6 1/9/6 9/7/6 10/18/6
f 5/19/7 3/20/7 14/21/7 11/22/7
f 3/20/8 1/8/8 13/23/8 14/21/8
f 13/24/9 12/25/9 17/26/9 15/27/9
f 39/28/10 38/29/10 19/30/10 20/31/10
f 11/32/11 14/33/11 16/34/11 18/35/11
f 14/33/12 13/24/12 15/27/12 16/34/12
f 22/36/13 20/37/13 24/38/13 82/39/13
f 38/29/14 37/40/14 21/41/14 19/30/14
f 40/42/15 39/43/15 20/37/15 22/36/15
f 87/44/16 86/45/16 28/46/16 73/47/16 80/48/16
f 20/31/17 19/30/17 23/49/17 24/50/17
f 19/30/18 21/41/18 83/51/18 23/49/18
f 23/49/19 25/52/19 72/53/19 68/54/19
f 69/55/20 71/56/20 31/57/20 29/58/20
f 71/56/21 73/59/21 28/60/21 32/61/21 31/57/21
f 28/62/22 27/63/22 30/64/22 32/65/22
f 24/50/23 23/49/23 68/54/23 70/66/23 27/67/23
f 30/68/24 34/69/24 36/70/24 32/71/24
f 32/72/25 36/73/25 35/74/25 31/75/25
f 31/75/26 35/74/26 33/76/26 29/77/26
f 36/78/27 34/79/27 33/80/27 35/81/27
f 15/27/28 17/26/28 37/40/28 38/29/28
f 40/42/29 18/82/29 16/83/29
f 16/83/30 41/84/30 39/43/30 40/42/30
f 77/85/31 79/86/31 44/87/31 47/88/31 48/89/31
f 15/27/32 38/29/32 42/90/32
f 39/91/33 41/92/33 78/93/33 74/94/33
f 75/95/34 77/85/34 48/89/34 46/96/34
f 42/97/35 38/98/35 43/99/35 44/87/35
f 38/98/36 39/100/36 74/101/36 76/102/36 43/99/36
f 44/87/37 43/99/37 45/103/37 47/88/37
f 41/92/38 42/97/38 44/87/38 79/86/38 78/93/38
f 58/104/39 57/105/39 56/106/39 54/107/39
f 48/89/40 47/88/40 51/108/40 52/109/40
f 46/96/41 48/89/41 52/109/41 50/110/41
f 45/103/42 46/111/42 50/112/42 49/113/42
f 53/114/43 54/115/43 56/116/43 55/117/43
f 59/118/44 58/119/44 54/120/44 53/121/44
f 60/122/45 59/118/45 53/121/45 55/123/45
f 57/105/46 60/122/46 55/123/46 56/106/46
f 45/103/47 49/113/47 51/108/47 47/88/47
f 52/109/48 51/108/48 60/124/48 57/125/48
f 51/108/49 49/113/49 59/126/49 60/124/49
f 49/113/50 50/112/50 58/127/50 59/126/50
f 50/110/51 52/109/51 57/125/51 58/128/51
f 4/129/52 6/130/52 62/131/52 61/13/52
f 63/132/53 67/5/53 1/8/53 3/20/53
f 9/7/54 64/6/54 65/17/54 10/18/54
f 64/6/55 67/5/55 81/133/55
f 5/134/56 66/135/56 63/132/56 3/20/56
f 68/136/57 69/55/57 70/137/57
f 71/56/58 72/138/58 73/59/58
f 71/56/59 69/55/59 68/136/59 72/138/59
f 27/63/60 70/137/60 69/55/60 29/58/60 30/64/60
f 74/101/61 75/139/61 76/102/61
f 77/85/62 78/93/62 79/86/62
f 77/85/63 75/95/63 74/94/63 78/93/63
f 43/99/64 76/102/64 75/139/64 46/111/64 45/103/64
f 73/47/65 72/53/65 25/52/65 80/48/65
f 63/4/66 4/3/66 81/133/66
f 67/5/67 63/4/67 81/133/67
f 2/16/68 64/6/68 81/133/68
f 61/13/69 2/16/69 81/133/69
f 4/129/70 61/13/70 81/133/70
f 16/34/71 15/27/71 42/90/71 41/140/71
f 86/45/72 85/141/72 24/38/72 27/142/72 28/46/72
f 23/49/73 83/51/73 25/52/73
f 85/141/74 86/45/74 26/143/74
f 82/39/75 24/38/75 85/141/75 84/144/75
f 86/45/76 87/44/76 26/143/76
f 84/144/77 85/141/77 26/143/77
f 66/145/78 134/146/78 91/147/78 6/148/78
f 136/149/79 88/150/79 92/151/79 135/152/79
f 88/153/80 93/154/80 12/11/80 7/10/80
f 133/155/81 89/156/81 8/15/81 62/14/81
f 135/152/82 65/17/82 8/15/82 89/156/82
f 7/10/83 10/18/83 92/151/83 88/153/83
f 5/157/84 11/158/84 94/159/84 90/160/84
f 90/160/85 94/159/85 93/161/85 88/150/85
f 93/162/86 95/163/86 17/26/86 12/25/86
f 112/164/87 98/165/87 97/166/87 111/167/87
f 11/32/88 18/35/88 96/168/88 94/169/88
f 94/169/89 96/168/89 95/163/89 93/162/89
f 22/36/90 82/39/90 100/170/90 98/171/90
f 111/167/91 97/166/91 21/41/91 37/40/91
f 40/42/92 22/36/92 98/171/92 112/172/92
f 87/44/93 80/48/93 142/173/93 102/174/93 151/175/93
f 98/165/94 100/176/94 99/177/94 97/166/94
f 97/166/95 99/177/95 83/51/95 21/41/95
f 99/177/96 137/178/96 141/179/96 25/52/96
f 138/180/97 103/181/97 105/182/97 140/183/97
f 140/183/98 105/182/98 106/184/98 102/185/98 142/186/98
f 29/77/99 33/76/99 34/69/99 30/68/99
f 102/187/100 106/188/100 104/189/100 101/190/100
f 100/176/101 101/191/101 139/192/101 137/178/101 99/177/101
f 106/193/102 110/194/102 108/195/102 104/196/102
f 105/197/103 109/198/103 110/199/103 106/200/103
f 103/201/104 107/202/104 109/198/104 105/197/104
f 110/203/105 109/204/105 107/205/105 108/206/105
f 95/163/106 111/167/106 37/40/106 17/26/106
f 40/42/107 96/207/107 18/82/107
f 96/207/108 40/42/108 112/172/108 113/208/108
f 146/209/109 120/210/109 119/211/109 116/212/109 148/213/109
f 95/163/110 114/214/110 111/167/110
f 112/215/111 143/216/111 147/217/111 113/218/111
f 144/219/112 118/220/112 120/210/112 146/209/112
f 114/221/113 116/212/113 115/222/113 111/223/113
f 111/223/114 115/222/114 145/224/114 143/225/114 112/226/114
f 116/212/115 119/211/115 117/227/115 115/222/115
f 113/218/116 147/217/116 148/213/116 116/212/116 114/221/116
f 130/228/117 126/229/117 128/230/117 129/231/117
f 120/210/118 124/232/118 123/233/118 119/211/118
f 118/220/119 122/234/119 124/232/119 120/210/119
f 117/227/120 121/235/120 122/236/120 118/237/120
f 125/238/121 127/239/121 128/240/121 126/241/121
f 131/242/122 125/243/122 126/244/122 130/245/122
f 132/246/123 127/247/123 125/243/123 131/242/123
f 129/231/124 128/230/124 127/247/124 132/246/124
f 117/227/125 119/211/125 123/233/125 121/235/125
f 124/232/126 129/248/126 132/249/126 123/233/126
f 123/233/127 132/249/127 131/250/127 121/235/127
f 121/235/128 131/250/128 130/251/128 122/236/128
f 122/234/129 130/252/129 129/248/129 124/232/129
f 91/253/130 133/155/130 62/254/130 6/255/130
f 134/256/131 90/160/131 88/150/131 136/149/131
f 92/151/132 10/18/132 65/17/132 135/152/132
f 135/152/133 149/257/133 136/149/133
f 5/258/134 90/160/134 134/256/134 66/259/134
f 137/260/135 139/261/135 138/180/135
f 140/183/136 142/186/136 141/262/136
f 140/183/137 141/262/137 137/260/137 138/180/137
f 101/190/138 104/189/138 103/181/138 138/180/138 139/261/138
f 143/225/139 145/224/139 144/263/139
f 146/209/140 148/213/140 147/217/140
f 146/209/141 147/217/141 143/216/141 144/219/141
f 115/222/142 117/227/142 118/237/142 144/263/142 145/224/142
f 142/173/143 80/48/143 25/52/143 141/179/143
f 134/146/144 149/257/144 91/147/144
f 136/149/145 149/257/145 134/146/145
f 89/156/146 149/257/146 135/152/146
f 133/155/147 149/257/147 89/156/147
f 91/253/148 149/257/148 133/155/148
f 96/168/149 113/264/149 114/214/149 95/163/149
f 151/175/150 102/174/150 101/265/150 100/170/150 150/266/150
f 99/177/151 25/52/151 83/51/151
f 150/266/152 26/143/152 151/175/152
f 82/39/153 84/144/153 150/266/153 100/170/153
f 151/175/154 26/143/154 87/44/154
f 84/144/155 26/143/155 150/266/155
f 104/196/156 108/195/156 107/202/156 103/201/156
